<svg width="530" height="573" viewBox="0 0 530 573" fill="none" xmlns="http://www.w3.org/2000/svg">
<path d="M515.447 0.5H14C7.37258 0.5 2 5.87261 2 12.5V513.947C2 520.574 7.37261 525.947 14 525.947H515.447C522.074 525.947 527.447 520.574 527.447 513.947V12.5C527.447 5.87258 522.074 0.5 515.447 0.5Z" stroke="black" stroke-width="4" stroke-miterlimit="10"/>
<path d="M113.085 526.903H387.62C388.773 516.412 346.721 293.325 297.324 221.608C291.716 213.469 243.71 207.547 226.087 227.792C132.734 335 110.83 524.333 113.085 526.903Z" fill="black"/>
<path d="M303.835 240.122C311.627 260.309 341.023 331.084 357 381.878C367.721 415.965 371.803 444.573 374.149 452.09C374.149 452.09 293.088 426.052 274.836 426.007C246.728 425.937 201.638 484.645 212.699 491.996C230.086 503.563 312.967 542.899 379.154 555.248C415.131 561.964 482.921 516.233 477.563 479.877C470.046 428.853 377.84 294.357 342.76 256.22C324.547 236.424 294.337 215.52 303.835 240.122Z" fill="#FF9581"/>
<path d="M482.504 490.663C480.806 527.416 434.831 558.356 408.165 559.99C362.178 562.778 224.222 522.603 224.222 522.603L277.848 419.291C277.848 419.291 371.72 451.154 374.104 452.051V452.013C373.277 449.277 350.143 362.345 339.806 333.539C339.255 331.949 338.614 330.322 338.011 328.611C335.038 320.632 330.956 310.096 326.444 298.715L326.399 298.632C323.9 292.332 321.259 285.744 318.664 279.246V279.207C307.327 251.042 296.279 224.235 296.279 224.235C312.082 226.831 327.687 235.136 353.308 262.026C378.878 288.884 485.311 430.032 482.504 490.663Z" fill="black"/>
<path d="M259.975 500.25C263.801 492.938 267.691 485.657 271.53 478.352C275.298 471.2 279.111 464.074 282.956 456.96C286.929 449.603 291.101 442.259 294.312 434.53C294.37 434.383 294.171 434.261 294.075 434.389C289.249 440.753 285.276 447.77 281.309 454.685C277.201 461.85 273.196 469.079 269.229 476.327C265.339 483.427 261.596 490.598 257.905 497.795C254.111 505.203 250.279 512.881 247.536 520.751C247.427 521.065 247.863 521.372 248.068 521.065C252.503 514.483 256.297 507.273 259.975 500.25Z" fill="#2B454E"/>
<path d="M402.814 467.297L374.149 452.096L374.104 452.058V452.019C373.277 449.283 350.143 362.351 339.806 333.545C339.255 331.956 338.614 330.328 338.011 328.617C335.038 320.638 330.956 310.103 326.444 298.721L402.814 467.297Z" fill="#1C1C1C"/>
<path d="M426.545 479.909C418.586 473.962 410.005 468.643 401.36 463.753C397.04 461.305 392.631 459.056 388.101 457.031C383.281 454.878 378.187 453.32 373.399 451.154C373.034 450.988 372.765 451.552 373.13 451.718C377.603 453.743 381.852 456.563 386.172 458.915C390.664 461.363 395.176 463.773 399.726 466.112C408.659 470.707 417.432 475.583 426.315 480.275C426.526 480.39 426.744 480.057 426.545 479.909Z" fill="#1C1C1C"/>
<path d="M405.672 457.653C398.476 457.749 355.039 446.149 348.714 452.109C310.16 488.452 297.971 481.133 289.762 485.869C226.234 522.417 141.398 565.354 111.118 565.623C65.1944 565.995 46.9045 527.454 54.5499 491.041C69.642 419.06 166.718 278.708 210.642 241.41C233.931 221.665 232.091 251.446 222.459 283.822C216.807 302.804 206.925 331.027 196.845 358.724C187.918 383.397 164.257 446.444 163.847 447.924V447.963C163.809 448.046 163.77 448.091 163.777 448.136C163.745 448.302 163.911 448.335 164.283 448.232C166.302 447.86 220.627 422.258 275.259 408.192C294.51 403.238 334.602 396.176 348.976 402.591C357.525 406.404 357.666 411.505 357.666 411.505C357.666 411.505 364.517 410.883 371.746 416.83C376.539 420.778 378.026 426.36 378.026 426.36C378.026 426.36 385.524 427.411 389.427 431.756C394.079 436.94 394.49 442.426 394.49 442.426C404.615 445.13 405.672 457.653 405.672 457.653Z" fill="white"/>
<path d="M341.504 409.986C335.711 410.069 330.059 410.909 324.368 411.908C323.983 411.979 323.996 412.575 324.406 412.53C329.994 411.915 335.653 411.787 341.267 411.601C346.849 411.415 352.52 411.293 358.102 411.409C358.134 411.409 358.141 411.351 358.109 411.345C352.54 410.428 347.169 409.903 341.504 409.986Z" fill="#1A2E35"/>
<path d="M377.866 426.027C367.92 423.297 359.993 421.784 347.502 423.348C347.099 423.399 347.131 423.995 347.528 423.969C359.397 423.233 367.138 424.437 377.847 426.238C377.968 426.264 377.975 426.059 377.866 426.027Z" fill="#1A2E35"/>
<path d="M394.381 442.093C384.409 437.991 376.732 436.709 365.664 436.709C365.273 436.709 365.145 437.286 365.549 437.325C376.168 438.337 383.935 439.862 394.233 442.541C394.49 442.605 394.624 442.195 394.381 442.093Z" fill="#1A2E35"/>
<path d="M272.606 408.826C267.838 409.448 263.07 410.851 258.405 411.998C253.432 413.222 248.471 414.575 243.601 416.183C233.847 419.4 224.382 423.258 215.045 427.513C214.686 427.68 214.878 428.231 215.263 428.097C224.773 424.764 234.379 421.643 243.992 418.618C248.721 417.132 253.419 415.549 258.129 414.011C262.961 412.428 267.992 411.229 272.741 409.429C273.061 409.307 272.965 408.775 272.606 408.826Z" fill="#1A2E35"/>
<path d="M234.61 419.124C244.665 415.722 249.209 415.702 249.209 415.702L306.366 512.221C306.366 512.221 148.935 568.898 116.616 572.211C84.2919 575.524 47.5198 550.07 46.8982 509.491C46.0266 452.455 139.033 315.486 185.822 262.52C207.265 238.244 232.264 220.614 238.641 224.594C246.171 229.291 232.495 259.815 225.286 282.585C211.982 324.618 164.296 448.232 164.296 448.232C164.296 448.232 222.633 423.181 234.61 419.124Z" fill="black"/>
<path d="M248.696 415.625C239.827 416.145 201.484 429.5 182.682 437.568C163.943 445.611 145.916 455.153 129.004 466.573C119.436 473.033 110.355 480.063 101.383 487.324C101.076 487.574 101.409 488.074 101.742 487.837C118.276 476.013 135.938 465.464 153.811 455.807C171.595 446.2 189.705 437.081 208.553 429.731C219.287 425.546 237.744 419.278 248.228 416.529C251.195 415.747 248.971 415.606 248.696 415.625Z" fill="#1C1C1C"/>
<path d="M210.95 331.225C208.553 335.096 206.124 338.941 204.073 343.017C203.977 343.209 203.887 343.401 203.791 343.594C206.835 334.333 209.726 325.047 212.494 315.697C212.667 315.121 211.712 314.813 211.494 315.371C197.966 349.631 185.412 384.307 173.236 419.073C169.826 428.795 166.84 438.619 163.745 448.437C163.636 448.777 164.193 448.95 164.334 448.629C168.051 440.209 171.794 431.845 175.197 423.277C178.599 414.715 181.759 406.058 184.957 397.419C190.545 382.314 195.87 367.132 201.004 351.874C202.612 349.201 204.234 346.535 205.752 343.818C207.963 339.851 209.783 335.698 211.629 331.552C211.828 331.097 211.2 330.822 210.95 331.225Z" fill="#1C1C1C"/>
<path d="M268.062 491.201C263.871 484.088 259.744 476.942 255.572 469.822C251.484 462.844 247.453 455.839 243.441 448.822C239.295 441.561 235.264 434.14 230.4 427.328C230.31 427.199 230.092 427.308 230.156 427.456C233.008 434.915 236.866 441.997 240.647 449.014C244.562 456.288 248.587 463.504 252.644 470.7C256.617 477.75 260.725 484.716 264.89 491.656C269.171 498.789 273.67 506.101 278.906 512.586C279.117 512.843 279.604 512.644 279.457 512.298C276.208 505.056 272.087 498.033 268.062 491.201Z" fill="#1C1C1C"/>
<path d="M308.641 512.426C303.899 503.076 296.523 493.893 291.063 484.998C290.857 484.658 290.351 485.011 290.55 485.35C295.51 493.694 300.054 502.685 304.796 511.17C283.174 520.097 260.218 528.057 238.167 535.869C215.538 543.892 192.762 551.493 169.672 558.145C156.766 561.862 143.84 565.893 130.856 569.302C130.049 569.513 130.266 570.18 131.093 570.02C154.452 565.623 177.388 558.875 200.004 551.698C223.068 544.379 245.831 536.202 268.485 527.736C281.232 522.975 309.026 513.183 308.641 512.426Z" fill="#1C1C1C"/>
<path d="M271.151 408.89C241.422 416.503 207.214 429.032 191.884 435.03C191.481 435.171 191.115 435.312 190.75 435.447C177.247 440.753 168.884 444.688 166.878 445.021C166.712 444.944 166.584 444.829 166.455 444.752V444.714C165.052 443.701 163.661 442.932 162.277 442.413C158.47 441.048 121.891 436.479 122.813 425.148C123.704 413.94 138.61 414.638 140.802 414.792C138.431 414.273 118.577 409.621 125.044 399.707C129.613 392.676 149.274 393.708 151.254 393.785C149.249 393.125 131.01 387.178 137.284 377.059C141.776 369.817 163.725 370.759 166.257 371.189C164.206 370.407 147.948 367.683 155.535 358.961C160.803 352.886 202.132 359.064 220.505 368.234C247.824 381.872 271.151 408.89 271.151 408.89Z" fill="white"/>
<path d="M191.884 435.031C191.481 435.172 191.115 435.313 190.75 435.447C184.406 430.519 160.399 417.805 141.539 415.389C140.373 415.241 140.296 414.568 141.533 414.626C164.821 415.683 185.758 429.398 191.884 435.031Z" fill="#1A2E35"/>
<path d="M152.152 394.535C178.183 399.7 189.949 405.449 212.334 419.669C212.648 419.868 213 419.406 212.699 419.176C191.833 403.558 178.849 395.823 152.376 393.875C151.177 393.785 150.96 394.298 152.152 394.535Z" fill="#1A2E35"/>
<path d="M167.058 371.727C192.032 378.366 205.195 384.121 225.311 400.399C225.785 400.783 226.369 400.2 225.933 399.771C206.976 381.385 190.596 374.098 167.295 371.035C165.706 370.83 165.488 371.311 167.058 371.727Z" fill="#1A2E35"/>
<path d="M292.107 271.575C277.316 276.894 248.587 256.624 236.148 238.975C235.302 237.757 235.738 223.934 235.469 207.105C235.27 196.896 234.802 185.528 233.629 175.191L300.265 183.586C300.265 183.586 296.349 205.984 298.503 223.998C298.701 225.504 299.009 226.888 299.432 228.189C299.477 228.381 299.56 228.612 299.605 228.881C301.842 236.789 306.404 266.422 292.107 271.575Z" fill="white" stroke="black" stroke-width="0.640852" stroke-miterlimit="10"/>
<path d="M299.631 228.875C299.759 229.304 299.887 229.772 299.97 230.33C260.077 228.638 244.902 211.098 235.084 194.269C234.783 187.854 234.36 181.349 233.629 175.191L300.271 183.573C300.271 183.573 296.337 205.99 298.515 223.998C298.689 225.498 299.028 226.863 299.458 228.189C299.502 228.356 299.541 228.618 299.631 228.875Z" fill="black" stroke="black" stroke-width="0.640852" stroke-miterlimit="10"/>
<path d="M206.316 105.293C202.702 129.216 224.536 193.577 242.992 205.926C269.748 223.825 308.699 220.178 322.682 189.123C336.236 159.022 306.296 75.6536 286.134 64.9322C256.437 49.1352 211.655 69.95 206.316 105.293Z" fill="white" stroke="black" stroke-width="1.2817" stroke-miterlimit="10"/>
<path d="M267.934 134.24C267.845 134.087 267.665 134.561 267.729 134.734C269.312 139.028 270.408 144.218 266.96 146.968C266.851 147.051 266.941 147.269 267.075 147.198C271.645 144.93 270.126 138.054 267.934 134.24Z" fill="black"/>
<path d="M262.538 131.004C255.38 132.805 259.507 146.993 266.14 145.327C272.67 143.68 268.543 129.492 262.538 131.004Z" fill="black"/>
<path d="M294.671 126.191C294.658 126.012 295.074 126.3 295.119 126.48C296.26 130.914 298.311 135.804 302.713 136.105C302.848 136.112 302.906 136.343 302.752 136.362C297.695 137.092 295.036 130.575 294.671 126.191Z" fill="black"/>
<path d="M297.26 120.456C304.174 117.86 308.853 131.882 302.444 134.279C296.144 136.65 291.466 122.628 297.26 120.456Z" fill="black"/>
<path d="M255.053 126.14C256.841 125.089 258.322 123.827 259.988 122.603C261.865 121.225 263.5 120.321 264.326 118.04C264.769 116.816 263.935 115.092 262.788 114.547C260.11 113.285 257.392 114.4 255.066 115.963C252.541 117.662 251.029 119.616 250.144 122.526C249.286 125.345 252.688 127.524 255.053 126.14Z" fill="black"/>
<path d="M300.669 111.714C298.605 111.964 296.663 111.855 294.606 111.894C292.28 111.939 290.428 112.214 288.384 110.894C287.288 110.189 286.91 108.312 287.493 107.184C288.852 104.556 291.69 103.794 294.491 103.627C297.529 103.447 299.919 104.082 302.38 105.863C304.77 107.587 303.386 111.381 300.669 111.714Z" fill="black"/>
<path d="M278.104 174.986C279.457 175.71 280.918 176.819 282.552 176.492C284.116 176.178 285.711 174.967 286.955 174.012C287.076 173.916 287.262 174.024 287.211 174.185C286.564 176.203 284.468 177.959 282.328 178.196C280.238 178.427 278.752 176.992 277.739 175.313C277.598 175.075 277.906 174.883 278.104 174.986Z" fill="black"/>
<path d="M278.893 160.483C282.462 163.585 286.685 164.617 290.819 164.232C292.665 164.072 294.523 163.598 296.273 162.912C296.625 162.803 296.965 162.662 297.266 162.496C297.574 162.361 297.856 162.239 298.189 162.066C298.682 161.842 298.842 161.336 298.785 160.823L298.772 160.791C298.721 160.631 298.682 160.503 298.599 160.355C298.599 160.355 298.599 160.355 298.593 160.323L298.471 159.939C297.58 156.529 295.754 151.479 295.754 151.479C297.17 151.736 304.303 152.742 303.687 150.999C298.554 136.618 292.851 120.622 284.705 107.395C284.462 106.947 283.757 107.274 283.936 107.741C288.32 121.757 295.145 134.907 299.772 148.922C297.535 148.743 293.844 148.282 292.081 148.833C291.639 149.108 295.786 158.529 296.061 160.092C296.061 160.092 296.08 160.157 296.08 160.266C290.608 162.649 285.82 162.175 279.188 159.964C278.79 159.811 278.527 160.208 278.893 160.483Z" fill="black"/>
<path opacity="0.2" d="M213.34 150.633C217.115 147.544 221.883 131.715 224.1 125.179C226.401 118.386 219.575 90.8483 217.345 82.6582C211.712 89.0155 207.745 96.789 206.348 105.543C204.746 115.508 207.848 133.17 213.34 150.633Z" fill="black"/>
<path d="M276.342 90.5726C273.144 97.4682 266.665 102.403 259.065 103.313C251.663 104.197 243.236 101.333 238.724 95.1996C238.59 95.0201 238.308 95.2252 238.442 95.411C243.268 101.961 250.939 106.293 259.257 105.094C267.063 103.966 274.138 98.1924 276.842 90.7969C276.957 90.4637 276.49 90.2522 276.342 90.5726Z" fill="#1A2E35"/>
<path d="M239.397 44.5917C227.202 48.392 217.89 58.4213 215.807 68.0725C214.538 73.9363 215.615 79.2105 217.948 84.222C218.044 84.4271 218.467 84.254 218.39 84.0425C215.295 75.9358 216.679 65.2912 223.914 56.9281C230.867 48.8982 241.723 43.906 252.624 44.8096C258.315 45.2774 263.41 47.341 266.685 50.699C267.05 51.0771 267.889 50.5196 267.562 50.1223C262.019 43.419 250.433 41.1568 239.397 44.5917Z" fill="#1A2E35"/>
<path d="M318.318 50.7119C314.646 45.2262 308.936 41.2594 302.604 39.4778C293.735 36.9785 285.417 40.1187 277.22 43.3998C276.996 43.4895 277.137 43.8356 277.355 43.7459C284.346 40.971 291.594 38.5678 299.182 40.0482C305.366 41.2594 311.205 44.5598 315.21 49.4559C323.528 59.6198 322.951 75.3527 313.723 84.7476C308.5 90.0666 301.002 93.0786 293.555 92.8351C293.261 92.8287 293.177 93.2773 293.479 93.2965C307.199 94.104 320.228 84.2092 322.413 70.495C323.496 63.7276 322.157 56.4347 318.318 50.7119Z" fill="#1A2E35"/>
<path d="M206.169 118.988C206.169 118.988 188.283 100.314 194.441 84.8308C197.928 76.0575 216.538 71.8215 216.538 71.8215C216.538 71.8215 219.467 59.6068 233.681 51.8333C248.042 43.9829 268.825 47.7895 268.825 47.7895C268.825 47.7895 281.046 35.325 296.907 39.2726C319.023 44.7775 324.835 74.4554 308.301 89.195C296.689 99.5447 275.054 92.7901 275.054 92.7901C273.362 93.5271 258.43 109.459 240.294 97.2376C240.294 97.2376 232.008 110.189 220.14 106.101C220.146 106.107 217.935 117.501 206.169 118.988Z" fill="black"/>
<path d="M299.413 227.472L285.237 266.685L235.635 219.877L222.696 235.995C222.696 235.995 272.35 311.474 272.51 307.969L287.089 274.241L310.826 296.414L306.77 238.629L299.413 227.472Z" fill="#EDEFEF"/>
<path d="M310.442 267.736C309.449 258.22 308.718 248.6 307.289 239.141C307.238 238.808 306.706 238.674 306.635 239.077C305.072 248.363 309.051 284.744 309.346 293.492C309.314 293.46 309.276 293.428 309.244 293.396C308.25 292.435 287.282 273.927 287.089 274.234C283.853 279.624 273.151 304.188 272.439 306.412C264.589 294.421 234.572 250.888 225.388 239.616C225.125 239.289 224.619 239.584 224.831 239.968C231.848 252.676 271.6 311.327 272.17 311.135C272.574 311.423 285.891 281.162 287.403 275.484C290.986 279.554 312.243 300.535 312.256 299.112C312.358 289.532 311.429 277.266 310.442 267.736Z" fill="#1C1C1C"/>
<path d="M228.394 157.112C228.394 157.112 209.905 138.297 201.125 145.237C192.346 152.178 208.745 181.202 220.812 183.522C232.88 185.842 235.244 174.717 235.244 174.717L228.394 157.112Z" fill="white" stroke="black" stroke-width="1.2817" stroke-miterlimit="10"/>
<path d="M206.034 153.434C205.849 153.446 205.855 153.709 206.028 153.748C214.532 155.638 219.967 162.316 224.19 169.481C221.325 166.93 217.833 165.86 214.353 169.34C214.173 169.525 214.423 169.814 214.641 169.73C217.788 168.487 220.236 168.654 222.876 170.897C224.747 172.486 226.208 174.646 227.682 176.594C228.176 177.241 229.4 176.645 228.99 175.87C228.958 175.812 228.926 175.754 228.894 175.697C227.381 165.514 217.108 152.626 206.034 153.434Z" fill="#1A2E35"/>
</svg>
